<?xml version="1.0" encoding="utf-8"?>
<!-- Generator: Adobe Illustrator 18.1.0, SVG Export Plug-In . SVG Version: 6.00 Build 0)  -->
<svg version="1.1" id="Layer_1" xmlns="http://www.w3.org/2000/svg" xmlns:xlink="http://www.w3.org/1999/xlink" x="0px" y="0px"
	 viewBox="0 0 406.6 61.1" enable-background="new 0 0 406.6 61.1" xml:space="preserve">
<g>
	<path fill="#E0E0E0" d="M10.4,49V13.3c0-1.3,0.4-2.2,1.1-2.8c0.7-0.6,1.6-0.9,2.7-0.9c1.4,0,2.5,0.2,3.3,0.7
		c0.8,0.5,1.6,1.6,2.5,3.2l7,12.8l7-12.8c0.9-1.6,1.8-2.7,2.5-3.2c0.8-0.5,1.9-0.7,3.3-0.7c1.1,0,1.9,0.3,2.7,0.9
		c0.7,0.6,1.1,1.5,1.1,2.8V49c0,0.7-0.4,1.3-1.1,1.7c-0.7,0.4-1.6,0.6-2.6,0.6c-1,0-1.9-0.2-2.6-0.6c-0.7-0.4-1.1-1-1.1-1.7V24.4
		l-6.7,11.9c-0.5,1-1.4,1.5-2.5,1.5c-1.1,0-1.9-0.5-2.5-1.5L17.8,24v25c0,0.7-0.4,1.3-1.1,1.7c-0.7,0.4-1.6,0.6-2.6,0.6
		c-1,0-1.9-0.2-2.6-0.6C10.8,50.3,10.4,49.7,10.4,49z"/>
	<path fill="#E0E0E0" d="M50.3,49V11.9c0-0.8,0.4-1.3,1.1-1.7C52.1,9.8,53,9.6,54,9.6c1,0,1.9,0.2,2.6,0.6c0.7,0.4,1.1,1,1.1,1.7V49
		c0,0.7-0.4,1.3-1.1,1.7c-0.7,0.4-1.6,0.6-2.6,0.6c-1,0-1.9-0.2-2.6-0.6C50.6,50.3,50.3,49.7,50.3,49z"/>
	<path fill="#E0E0E0" d="M62.5,44.7c0-0.9,0.3-1.8,1-2.7c0.7-0.9,1.4-1.3,2.3-1.3c0.5,0,1.1,0.2,1.7,0.7c0.6,0.5,1.2,1,1.8,1.6
		c0.6,0.6,1.4,1.1,2.5,1.6c1.1,0.5,2.3,0.7,3.7,0.7c1.8,0,3.3-0.4,4.6-1.3c1.2-0.8,1.8-2.1,1.8-3.7c0-1.1-0.3-2.2-1-3.1
		c-0.7-0.9-1.5-1.6-2.6-2.2c-1.1-0.6-2.3-1.2-3.6-1.7c-1.3-0.6-2.6-1.2-3.9-1.9c-1.3-0.7-2.5-1.5-3.6-2.3c-1.1-0.9-2-2-2.6-3.4
		c-0.7-1.4-1-3.1-1-4.9c0-2,0.4-3.9,1.2-5.4c0.8-1.6,1.9-2.8,3.3-3.6c1.4-0.9,2.8-1.5,4.4-1.9c1.6-0.4,3.2-0.6,5-0.6
		c1,0,2,0.1,3.1,0.2c1.1,0.1,2.3,0.4,3.5,0.7c1.2,0.3,2.2,0.8,3,1.5c0.8,0.7,1.2,1.4,1.2,2.3c0,0.8-0.3,1.7-0.8,2.6
		c-0.5,0.9-1.3,1.4-2.2,1.4c-0.3,0-1.3-0.4-2.8-1.1c-1.5-0.7-3.2-1.1-5.1-1.1c-2.1,0-3.6,0.4-4.8,1.2c-1.1,0.8-1.7,1.9-1.7,3.2
		c0,1.1,0.5,2.1,1.4,2.9c0.9,0.8,2,1.5,3.4,2c1.4,0.5,2.8,1.2,4.4,1.9c1.6,0.8,3,1.6,4.4,2.5c1.4,0.9,2.5,2.2,3.4,4
		c0.9,1.7,1.4,3.8,1.4,6.1c0,3.9-1.2,6.9-3.7,9c-2.5,2.1-5.8,3.2-9.8,3.2c-3.6,0-6.7-0.7-9.3-2.2C63.8,48.1,62.5,46.5,62.5,44.7z"/>
	<path fill="#A3A4A6" d="M92.3,44.7c0-0.9,0.3-1.8,1-2.7c0.7-0.9,1.4-1.3,2.3-1.3c0.5,0,1.1,0.2,1.7,0.7c0.6,0.5,1.2,1,1.8,1.6
		c0.6,0.6,1.4,1.1,2.5,1.6c1.1,0.5,2.3,0.7,3.7,0.7c1.8,0,3.3-0.4,4.6-1.3c1.2-0.8,1.8-2.1,1.8-3.7c0-1.1-0.3-2.2-1-3.1
		c-0.7-0.9-1.5-1.6-2.6-2.2c-1.1-0.6-2.3-1.2-3.6-1.7c-1.3-0.6-2.6-1.2-3.9-1.9c-1.3-0.7-2.5-1.5-3.6-2.3c-1.1-0.9-2-2-2.6-3.4
		c-0.7-1.4-1-3.1-1-4.9c0-2,0.4-3.9,1.2-5.4c0.8-1.6,1.9-2.8,3.3-3.6c1.4-0.9,2.8-1.5,4.4-1.9c1.6-0.4,3.2-0.6,5-0.6
		c1,0,2,0.1,3.1,0.2c1.1,0.1,2.3,0.4,3.5,0.7c1.2,0.3,2.2,0.8,3,1.5c0.8,0.7,1.2,1.4,1.2,2.3c0,0.8-0.3,1.7-0.8,2.6
		c-0.5,0.9-1.3,1.4-2.2,1.4c-0.3,0-1.3-0.4-2.8-1.1c-1.5-0.7-3.2-1.1-5.1-1.1c-2.1,0-3.6,0.4-4.8,1.2c-1.1,0.8-1.7,1.9-1.7,3.2
		c0,1.1,0.5,2.1,1.4,2.9c0.9,0.8,2,1.5,3.4,2c1.4,0.5,2.8,1.2,4.4,1.9c1.6,0.8,3,1.6,4.4,2.5c1.4,0.9,2.5,2.2,3.4,4
		c0.9,1.7,1.4,3.8,1.4,6.1c0,3.9-1.2,6.9-3.7,9c-2.5,2.1-5.8,3.2-9.8,3.2c-3.6,0-6.7-0.7-9.3-2.2C93.6,48.1,92.3,46.5,92.3,44.7z"/>
	<path fill="#A3A4A6" d="M123.7,38.6V22.6c0-4.5,1.2-7.8,3.6-9.9c2.4-2.1,5.7-3.1,9.7-3.1c4.1,0,7.3,1,9.8,3.1
		c2.4,2.1,3.7,5.4,3.7,9.9v15.9c0,4.5-1.2,7.8-3.7,9.9c-2.4,2.1-5.7,3.1-9.8,3.1c-4.1,0-7.3-1-9.7-3.1
		C124.9,46.4,123.7,43.1,123.7,38.6z M131.1,38.6c0,4.4,2,6.6,5.9,6.6c4,0,6-2.2,6-6.6V22.6c0-4.4-2-6.6-6-6.6c-4,0-5.9,2.2-5.9,6.6
		V38.6z"/>
	<path fill="#A3A4A6" d="M156.8,49V11.9c0-0.8,0.4-1.3,1.1-1.7c0.7-0.4,1.6-0.6,2.6-0.6c1,0,1.9,0.2,2.6,0.6c0.7,0.4,1.1,1,1.1,1.7
		v32.9h13.9c0.7,0,1.2,0.3,1.6,1c0.4,0.6,0.6,1.4,0.6,2.3c0,0.9-0.2,1.6-0.6,2.3c-0.4,0.6-0.9,1-1.6,1H160c-0.9,0-1.6-0.2-2.3-0.6
		C157.1,50.3,156.8,49.7,156.8,49z"/>
	<path fill="#A3A4A6" d="M183.4,38.6V11.9c0-0.8,0.4-1.3,1.1-1.7c0.7-0.4,1.6-0.6,2.6-0.6s1.9,0.2,2.6,0.6c0.7,0.4,1.1,1,1.1,1.7
		v26.7c0,4.4,2.1,6.6,6.3,6.6s6.3-2.2,6.3-6.6V11.9c0-0.8,0.4-1.3,1.1-1.7c0.7-0.4,1.6-0.6,2.6-0.6s1.9,0.2,2.6,0.6
		c0.7,0.4,1.1,1,1.1,1.7v26.7c0,4.5-1.2,7.8-3.7,9.9c-2.5,2.1-5.8,3.2-10,3.2c-4.1,0-7.5-1-10-3.1C184.7,46.4,183.4,43.1,183.4,38.6
		z"/>
	<path fill="#A3A4A6" d="M217.1,38.6V22.6c0-4.5,1.2-7.8,3.7-9.9c2.4-2.1,5.6-3.2,9.5-3.2c4,0,7.3,1,9.8,3c2.5,2,3.8,4.6,3.8,7.9
		c0,1.4-0.3,2.4-0.9,2.9c-0.6,0.5-1.5,0.8-2.9,0.8c-2.4,0-3.7-0.8-3.7-2.3c0-0.5-0.1-0.9-0.1-1.3c-0.1-0.4-0.2-0.8-0.5-1.4
		c-0.2-0.6-0.6-1.1-0.9-1.5c-0.4-0.4-1-0.7-1.7-1c-0.8-0.3-1.7-0.4-2.7-0.4c-4,0-6,2.2-6,6.6v15.9c0,4.4,2,6.6,6.1,6.6
		c1.2,0,2.2-0.2,3.1-0.6c0.8-0.4,1.4-0.9,1.8-1.6c0.4-0.7,0.6-1.3,0.7-1.9c0.1-0.6,0.2-1.2,0.3-2c0.1-1.6,1.3-2.3,3.7-2.3
		c1.3,0,2.3,0.3,2.9,0.8c0.6,0.5,0.9,1.5,0.9,2.9c0,3.4-1.3,6.2-3.8,8.2c-2.5,2.1-5.8,3.1-9.8,3.1c-3.9,0-7.1-1.1-9.5-3.2
		C218.3,46.4,217.1,43.1,217.1,38.6z"/>
	<path fill="#A3A4A6" d="M248.9,49V11.9c0-0.8,0.4-1.3,1.1-1.7c0.7-0.4,1.6-0.6,2.6-0.6s1.9,0.2,2.6,0.6c0.7,0.4,1.1,1,1.1,1.7V49
		c0,0.7-0.4,1.3-1.1,1.7c-0.7,0.4-1.6,0.6-2.6,0.6c-1,0-1.9-0.2-2.6-0.6C249.3,50.3,248.9,49.7,248.9,49z"/>
	<path fill="#A3A4A6" d="M262.7,38.6V22.6c0-4.5,1.2-7.8,3.6-9.9c2.4-2.1,5.7-3.1,9.7-3.1s7.3,1,9.8,3.1c2.4,2.1,3.7,5.4,3.7,9.9
		v15.9c0,4.5-1.2,7.8-3.7,9.9c-2.4,2.1-5.7,3.1-9.8,3.1s-7.3-1-9.7-3.1C263.9,46.4,262.7,43.1,262.7,38.6z M270.1,38.6
		c0,4.4,2,6.6,5.9,6.6c4,0,6-2.2,6-6.6V22.6c0-4.4-2-6.6-6-6.6c-4,0-5.9,2.2-5.9,6.6V38.6z"/>
	<path fill="#A3A4A6" d="M295.8,49v-37c0-0.8,0.4-1.3,1.1-1.7c0.7-0.4,1.6-0.6,2.6-0.6c1.4,0,2.4,0.2,3.1,0.7
		c0.7,0.5,1.5,1.6,2.4,3.2l11,21.3V11.9c0-0.8,0.4-1.3,1.1-1.7c0.7-0.4,1.6-0.6,2.6-0.6s1.9,0.2,2.6,0.6c0.7,0.4,1.1,1,1.1,1.7V49
		c0,0.7-0.4,1.3-1.1,1.7c-0.7,0.4-1.6,0.6-2.6,0.6c-2,0-3.4-0.8-4.3-2.3L303.2,26V49c0,0.7-0.4,1.3-1.1,1.7
		c-0.7,0.4-1.6,0.6-2.6,0.6c-1,0-1.9-0.2-2.6-0.6C296.2,50.3,295.8,49.7,295.8,49z"/>
	<path fill="#D92435" d="M329.6,50.5c-0.7-0.8-1.1-1.7-1.1-2.7c0-1.1,0.4-2,1.1-2.7c0.7-0.8,1.6-1.1,2.7-1.1c1,0,1.8,0.4,2.6,1.1
		c0.7,0.8,1.1,1.7,1.1,2.7c0,1-0.4,1.9-1.1,2.7c-0.7,0.8-1.6,1.2-2.6,1.2C331.2,51.6,330.3,51.3,329.6,50.5z"/>
	<path fill="#A3A4A6" d="M341.2,49v-37c0-0.7,0.3-1.3,1-1.7c0.6-0.4,1.4-0.6,2.3-0.6h20.3c0.8,0,1.3,0.3,1.7,1
		c0.4,0.6,0.6,1.4,0.6,2.2c0,0.9-0.2,1.7-0.6,2.3c-0.4,0.6-1,1-1.7,1h-16.2v11.4h8.7c0.7,0,1.3,0.3,1.7,0.9c0.4,0.6,0.6,1.3,0.6,2.1
		c0,0.7-0.2,1.4-0.6,2c-0.4,0.6-1,0.9-1.7,0.9h-8.7v11.5h16.2c0.7,0,1.3,0.3,1.7,1c0.4,0.6,0.6,1.4,0.6,2.3c0,0.8-0.2,1.6-0.6,2.2
		c-0.4,0.6-1,1-1.7,1h-20.3c-0.9,0-1.6-0.2-2.3-0.6C341.6,50.3,341.2,49.7,341.2,49z"/>
	<path fill="#A3A4A6" d="M369.4,44.7c0-0.9,0.3-1.8,1-2.7c0.7-0.9,1.4-1.3,2.3-1.3c0.5,0,1.1,0.2,1.7,0.7c0.6,0.5,1.2,1,1.8,1.6
		c0.6,0.6,1.4,1.1,2.5,1.6c1.1,0.5,2.3,0.7,3.7,0.7c1.8,0,3.3-0.4,4.6-1.3c1.2-0.8,1.8-2.1,1.8-3.7c0-1.1-0.3-2.2-1-3.1
		c-0.7-0.9-1.5-1.6-2.6-2.2c-1.1-0.6-2.3-1.2-3.6-1.7c-1.3-0.6-2.6-1.2-3.9-1.9c-1.3-0.7-2.5-1.5-3.6-2.3c-1.1-0.9-2-2-2.6-3.4
		c-0.7-1.4-1-3.1-1-4.9c0-2,0.4-3.9,1.2-5.4c0.8-1.6,1.9-2.8,3.3-3.6c1.4-0.9,2.8-1.5,4.4-1.9c1.6-0.4,3.2-0.6,5-0.6
		c1,0,2,0.1,3.1,0.2c1.1,0.1,2.3,0.4,3.5,0.7c1.2,0.3,2.2,0.8,3,1.5c0.8,0.7,1.2,1.4,1.2,2.3c0,0.8-0.3,1.7-0.8,2.6
		c-0.5,0.9-1.3,1.4-2.2,1.4c-0.3,0-1.3-0.4-2.8-1.1c-1.5-0.7-3.2-1.1-5.1-1.1c-2.1,0-3.6,0.4-4.8,1.2c-1.1,0.8-1.7,1.9-1.7,3.2
		c0,1.1,0.5,2.1,1.4,2.9c0.9,0.8,2,1.5,3.4,2c1.3,0.5,2.8,1.2,4.4,1.9c1.6,0.8,3,1.6,4.4,2.5c1.3,0.9,2.5,2.2,3.4,4
		c0.9,1.7,1.4,3.8,1.4,6.1c0,3.9-1.2,6.9-3.7,9c-2.5,2.1-5.8,3.2-9.8,3.2c-3.6,0-6.7-0.7-9.3-2.2C370.7,48.1,369.4,46.5,369.4,44.7z
		"/>
</g>
</svg>
